<svg xmlns="http://www.w3.org/2000/svg" version="1.1" xmlns:xlink="http://www.w3.org/1999/xlink" width="512" height="512" x="0" y="0" viewBox="0 0 510 510" style="enable-background:new 0 0 512 512" xml:space="preserve" class=""><g><path fill="#b21061" d="m420 75-10 25.333L420 135h60V75z" opacity="1" data-original="#b21061"></path><path fill="#c05c4b" d="M105 0 95 180l10 210 75 17.5 75-17.5 20-210L255 0z" opacity="1" data-original="#c05c4b"></path><path fill="#8b3e2a" d="M420 0H255v390l79.315 13.576L420 390zM30 135v60l33 10 42-10v-60l-41.333-10z" opacity="1" data-original="#8b3e2a" class=""></path><path fill="#551f09" d="M105 0C63.645 0 30 33.645 30 75v60h75zM30 450l75-60V195H30z" opacity="1" data-original="#551f09" class=""></path><path fill="#ffe88c" d="M225 90v45h-60v60h60v135h30l14-135-14-105z" opacity="1" data-original="#ffe88c"></path><path fill="#ffbf6e" d="M285 135V90h-30v240h30V195h60v-60z" opacity="1" data-original="#ffbf6e" class=""></path><path fill="#f9f9f9" d="m85.334 407.5-34.667 37.167L81.334 495h102.999L255 480l10-32.667L255 420l-64.286-15z" opacity="1" data-original="#f9f9f9"></path><path fill="#e2dff4" d="m390 420-67.5-15-67.5 15v60l75.333 15L390 480z" opacity="1" data-original="#e2dff4" class=""></path><path fill="#8b3e2a" d="M60 450c0-16.542 13.458-30 30-30h165l10-15-10-15H90c-33.084 0-60 26.916-60 60s26.916 60 60 60h165l10-15-10-15H90c-16.542 0-30-13.458-30-30z" opacity="1" data-original="#8b3e2a" class=""></path><g fill="#551f09"><path d="M255 390h165v30H255zM255 480h165v30H255z" fill="#551f09" opacity="1" data-original="#551f09" class=""></path></g></g></svg>